<svg width="22" height="21" viewBox="0 0 22 21" fill="none" xmlns="http://www.w3.org/2000/svg">
<path fill-rule="evenodd" clip-rule="evenodd" d="M2.60156 14.1104C3.01578 14.1104 3.35156 14.4462 3.35156 14.8604C3.35156 16.021 4.4539 17.0504 6.18158 17.0504C7.89597 17.0504 9.0016 16.0137 9.0016 14.8604C9.0016 14.4462 9.33739 14.1104 9.7516 14.1104C10.1658 14.1104 10.5016 14.4462 10.5016 14.8604V16.8904C10.5016 19.119 8.46466 20.7504 6.18158 20.7504C3.90139 20.7504 1.85156 19.1215 1.85156 16.8904V14.8604C1.85156 14.4462 2.18735 14.1104 2.60156 14.1104ZM3.60513 17.856C4.03548 18.6474 4.9803 19.2504 6.18158 19.2504C7.38356 19.2504 8.32567 18.646 8.7524 17.8516C8.01279 18.3035 7.10857 18.5504 6.18158 18.5504C5.25221 18.5504 4.34618 18.3059 3.60513 17.856Z" fill="#9197B3"/>
<path fill-rule="evenodd" clip-rule="evenodd" d="M6.16003 9.76001C5.34166 9.76001 4.6302 10.0405 4.12456 10.4839L4.12395 10.4844C3.62392 10.922 3.34009 11.4948 3.34009 12.11C3.34009 12.4645 3.43796 12.7909 3.61109 13.0807C4.03854 13.773 4.97634 14.3 6.17004 14.3C7.36853 14.3 8.30277 13.7796 8.72815 13.0822C8.90187 12.7919 9.0001 12.465 9.0001 12.11C9.0001 11.493 8.71529 10.9173 8.20994 10.4962L8.20046 10.4883L8.20053 10.4882C7.68875 10.0473 6.97312 9.76001 6.16003 9.76001ZM3.13558 9.35611C3.92994 8.65952 4.9984 8.26001 6.16003 8.26001C7.32465 8.26001 8.38719 8.6711 9.17494 9.3478C9.98691 10.0266 10.5001 11.0092 10.5001 12.11C10.5001 12.7542 10.3188 13.3466 10.0132 13.8559L10.0109 13.8598L10.0109 13.8598C9.25561 15.1014 7.77043 15.8 6.17004 15.8C4.56568 15.8 3.08457 15.0888 2.33106 13.8627L2.32687 13.8559L2.32691 13.8559C2.02132 13.3466 1.84009 12.7542 1.84009 12.11C1.84009 11.0052 2.35621 10.0381 3.13619 9.35558L3.63007 9.92001L3.13558 9.35611Z" fill="#9197B3"/>
<path fill-rule="evenodd" clip-rule="evenodd" d="M6.18158 9.75C4.51321 9.75 3.35156 10.8998 3.35156 12.11V14.86C3.35156 16.0109 4.46426 17.05 6.18158 17.05C7.89779 17.05 9.0016 16.0218 9.0016 14.86V12.11C9.0016 11.493 8.71629 10.9116 8.21991 10.4763C7.70828 10.0365 6.99353 9.75 6.18158 9.75ZM1.85156 12.11C1.85156 9.88016 3.88995 8.25 6.18158 8.25C7.34849 8.25 8.41292 8.66271 9.20114 9.34179L9.20551 9.34555L9.20549 9.34557C9.98775 10.0301 10.5016 11.0079 10.5016 12.11V14.86C10.5016 17.1382 8.40537 18.55 6.18158 18.55C3.9589 18.55 1.85156 17.1291 1.85156 14.86V12.11Z" fill="#9197B3"/>
<path fill-rule="evenodd" clip-rule="evenodd" d="M17.92 8.69995C17.5609 8.69995 17.245 8.83919 17.0173 9.07311L17.0038 9.08658C16.7378 9.34624 16.5892 9.716 16.6266 10.1088L16.6275 10.1176L16.6274 10.1176C16.6803 10.7526 17.2909 11.2999 18.0399 11.2999H19.9828C20.1445 11.2895 20.25 11.1631 20.25 11.03V8.9699C20.25 8.83678 20.1444 8.71038 19.9828 8.69995H17.92ZM15.9492 8.01987C16.4609 7.49802 17.1624 7.19995 17.92 7.19995H20C20.0089 7.19995 20.0179 7.20011 20.0268 7.20043C20.9798 7.23446 21.75 8.00562 21.75 8.9699V11.03C21.75 11.9943 20.9797 12.7654 20.0268 12.7994C20.0179 12.7997 20.0089 12.7999 20 12.7999H18.0399C16.6303 12.7999 15.2623 11.7692 15.133 10.2466C15.0522 9.38448 15.3804 8.57901 15.9492 8.01987Z" fill="#9197B3"/>
<path fill-rule="evenodd" clip-rule="evenodd" d="M6 2.25C5.75575 2.25 5.52398 2.26744 5.30404 2.30128L5.28339 2.30416C4.17606 2.44312 3.30559 2.91721 2.70955 3.61651C2.11197 4.31761 1.75 5.29287 1.75 6.5V8.5C1.75 8.91421 1.41421 9.25 1 9.25C0.585786 9.25 0.25 8.91421 0.25 8.5V6.5C0.25 4.98713 0.70803 3.65239 1.56796 2.64349C2.42737 1.63519 3.64812 0.999904 5.08633 0.817136C5.38312 0.772041 5.68789 0.75 6 0.75H15C15.2697 0.75 15.5608 0.759756 15.8545 0.807111C17.305 0.979746 18.5395 1.6109 19.4103 2.62C20.2833 3.63163 20.75 4.9753 20.75 6.5V7.95001C20.75 8.36422 20.4142 8.70001 20 8.70001H17.92C17.561 8.70001 17.2452 8.83923 17.0174 9.07321L17.0039 9.08668C16.7378 9.34641 16.5892 9.71619 16.6266 10.1089L16.6275 10.1177L16.6274 10.1177C16.6803 10.7527 17.2909 11.3 18.04 11.3H20C20.4142 11.3 20.75 11.6358 20.75 12.05V13.5C20.75 15.1704 20.1899 16.6207 19.1553 17.6553C18.1207 18.6899 16.6704 19.25 15 19.25H12.5C12.0858 19.25 11.75 18.9142 11.75 18.5C11.75 18.0858 12.0858 17.75 12.5 17.75H15C16.3296 17.75 17.3793 17.3101 18.0947 16.5947C18.8101 15.8793 19.25 14.8296 19.25 13.5V12.8H18.04C16.6305 12.8 15.2623 11.7693 15.133 10.2467C15.0522 9.38449 15.3805 8.57904 15.9493 8.01996C16.4609 7.49817 17.1623 7.20001 17.92 7.20001H19.25V6.5C19.25 5.2847 18.8817 4.30336 18.2747 3.59999C17.6691 2.89822 16.7851 2.42541 15.6634 2.29497C15.6511 2.29354 15.6389 2.29182 15.6267 2.28979C15.4468 2.2598 15.2445 2.25 15 2.25H6Z" fill="#9197B3"/>
</svg>
